<svg width="35" height="35" viewBox="0 0 35 35" fill="none" xmlns="http://www.w3.org/2000/svg">
<path d="M32.3071 8.78988C35.4099 5.9512 33.6604 1 33.6604 1C33.6604 1 28.7092 1 26.9762 4.08625C25.986 3.72316 24.9297 3.4921 23.8239 3.4921H18.9222C17.8494 3.4921 16.8261 3.70665 15.8689 4.05324C14.136 1 9.21773 1 9.21773 1C9.21773 1 7.48479 5.9512 10.5711 8.78988C10.5711 8.78988 9.76237 11.216 9.76237 12.6683C9.76237 17.0584 12.8817 20.7388 17.0077 21.63C16.7106 22.2571 16.5456 22.9338 16.5456 23.66V28.4131C15.4068 28.6772 12.6506 29.7004 11.7264 26.8783C10.9837 24.6172 7.71585 20.3757 3.35873 20.8048C2.02189 20.9203 1.03163 22.1086 1.16367 23.4454C1.2957 24.7823 2.4675 25.789 3.80434 25.6405C4.3985 25.5744 6.29648 26.3996 7.20421 28.6772C7.76536 30.0635 8.27699 31.3673 9.31676 32.2421C10.4225 33.1993 11.8749 33.4964 13.2943 33.4964C14.1195 33.4964 16.3475 33.3808 17.0572 33.2488C17.8494 34.8497 26.217 33.7769 26.217 31.1198V23.6435C26.217 22.9173 26.0355 22.2241 25.7549 21.6135C29.881 20.7223 33.0003 17.0419 33.0003 12.6518C33.0003 11.1335 32.3071 8.78988 32.3071 8.78988Z" stroke="white" stroke-miterlimit="10" stroke-linecap="round" stroke-linejoin="round"/>
</svg>
