<svg width="32" height="35" viewBox="0 0 32 35" fill="none" xmlns="http://www.w3.org/2000/svg">
<path d="M16.4951 31.2274C8.92019 31.2274 2.74609 24.8666 2.74609 17.0607C2.74609 9.25489 8.92019 2.89406 16.4951 2.89406C19.8675 2.89406 23.1102 4.14072 25.1726 6.22322C25.886 6.94572 25.8989 8.13572 25.1985 8.87239C24.4981 9.60906 23.3567 9.62322 22.6303 8.90072C21.2424 7.49822 18.8817 6.63406 16.4822 6.63406C10.9047 6.63406 6.36494 11.3091 6.36494 17.0607C6.36494 22.8124 10.9047 27.4874 16.4822 27.4874C21.437 27.4874 23.9274 23.8749 24.7575 20.1491H16.1709C15.1721 20.1491 14.3549 19.3132 14.3549 18.2791C14.3549 17.2449 15.1721 16.4091 16.1709 16.4091H26.8588C27.3646 16.4091 27.8446 16.6216 28.1818 17.0041C28.519 17.3866 28.7006 17.8966 28.6617 18.4066C28.1429 26.0849 23.2529 31.2274 16.4951 31.2274Z" stroke="white" stroke-miterlimit="10" stroke-linecap="round" stroke-linejoin="round"/>
</svg>
